<svg width="1000" height="261" viewBox="0 0 1000 261" fill="none" xmlns="http://www.w3.org/2000/svg">
<path d="M438.098 148.609C434.287 111.876 415.939 85.6811 384.521 70.2477C343.742 50.1641 277.468 65.8961 260.728 135.629C256.806 151.937 256.684 168.511 262.123 184.691C262.75 186.889 263.245 189.15 264.033 191.272C285.393 248.761 353.83 269.239 403.819 238.202C414.494 231.567 418.123 217.361 412.917 205.639C406.983 192.349 392.699 187.369 379.557 194.291C370.702 198.952 361.594 202.343 351.586 201.97C335.159 201.362 322.078 194.216 311.899 179.156H317.792C346.771 179.156 375.719 179.156 404.637 179.156C408.338 179.181 412.032 178.824 415.666 178.089C427.908 175.583 435.641 167.221 437.259 154.859C438.031 152.883 438.32 150.734 438.098 148.609ZM314.285 131.352C325.687 106.65 358.763 102 376.383 122.659C378.79 125.385 380.778 128.491 382.277 131.864C383.651 135.064 383.773 136.909 379.375 136.802C368.781 136.525 358.147 136.717 347.583 136.717H317.256C312.414 136.706 312.091 136.119 314.285 131.352Z" fill="#F200AE"/>
<path d="M766.655 202.355C755.293 187.024 743.361 172.178 730.86 157.814C729.94 155.19 732.052 153.911 733.235 152.407C743.728 139.053 754.285 125.753 764.906 112.506C767.926 108.92 770.074 104.614 771.168 99.9584C772.261 95.3026 772.267 90.4362 771.184 85.7777C768.717 74.184 761.51 66.7606 750.713 64.0195C740.17 61.3317 730.587 64.0195 723.278 72.8934C714.453 83.5592 705.911 94.481 697.258 105.307C693.214 110.394 693.214 110.362 689.403 105.435C681.094 94.7689 672.835 84.1032 664.354 73.5227C660.483 68.7903 655.313 65.4467 649.559 63.9559C643.806 62.4651 637.756 62.9011 632.248 65.2034C627.144 67.3053 622.773 71.0079 619.726 75.812C616.678 80.6161 615.1 86.2907 615.204 92.0705C613.991 99.8778 616.963 106.256 621.492 112.015C631.783 125.102 641.973 138.264 652.577 151.052C656.135 155.318 655.761 158.017 652.364 162.081C642.033 174.4 632.036 187.06 622.038 199.688C616.812 206.29 613.466 213.82 614.78 222.619C616.7 235.493 623.089 245.156 635.331 248.868C647.856 252.676 658.015 247.801 666.092 237.413C674.169 227.024 682.266 217.041 690.04 206.663C692.517 203.389 693.922 203.325 696.439 206.589C704.9 217.585 713.553 228.422 722.267 239.194C732.113 251.374 749.733 253.326 761.277 243.706C773.195 233.701 776.016 214.961 766.655 202.355Z" fill="#F200AE"/>
<path d="M981.974 64.9267C980.209 63.8899 978.24 63.3019 976.222 63.2095C964.152 62.2922 952.365 63.6254 941.164 68.5424C937.586 70.1316 934.978 70.0036 931.5 67.7958C915.235 57.5033 892.864 68.9477 892.076 88.338C891.358 106.171 892.015 124.079 892.076 141.955C895.445 140.533 898.768 138.968 902.043 137.262C898.788 138.968 895.465 140.533 892.076 141.955C891.995 167.947 891.863 193.94 891.853 219.932C891.853 242.426 913.173 256.441 932.349 246.522C942.135 241.466 947.32 232.859 947.452 221.532C947.745 196.414 947.583 171.307 947.664 146.189C947.664 133.955 954.265 125.412 965.618 122.778C968.082 122.261 970.579 121.929 973.088 121.786C986.523 120.719 997.996 109.787 999.725 96.3693C1001.53 82.4078 994.276 69.5236 981.974 64.9267Z" fill="#F200AE"/>
<path d="M506.332 192.085C506.581 190.89 506.746 189.678 506.828 188.458C506.828 136.552 506.828 84.6699 506.828 32.8129C506.877 28.8612 506.18 24.9386 504.776 21.2743C503.373 17.6101 501.292 14.2776 498.654 11.4716C496.016 8.66558 492.875 6.44226 489.414 4.93152C485.953 3.42077 482.241 2.6529 478.495 2.67274C474.749 2.69258 471.045 3.49974 467.598 5.04708C464.151 6.59441 461.031 8.8509 458.42 11.6847C455.81 14.5186 453.76 17.8729 452.392 21.5518C451.023 25.2308 450.363 29.1605 450.451 33.1116C450.38 49.7502 450.451 66.3994 450.521 83.038C450.568 109.774 450.626 136.509 450.693 163.245C450.693 183.19 450.258 203.145 450.632 223.09C450.895 237.564 462.581 248.773 477.552 250.075C490.138 251.141 503.906 240.571 506.009 227.431C507.859 215.731 507.192 203.871 506.332 192.085Z" fill="#F200AE"/>
<path d="M860.435 153.666C860.506 133.124 860.617 112.592 860.637 92.0609C860.637 75.2196 849.366 62.666 833.576 61.8021C818.797 60.9808 805.009 73.2571 804.574 89.4691C803.917 114 804.574 138.67 804.574 163.266C804.483 183.051 803.846 202.857 804.483 222.61C805.009 238.832 817.776 249.882 833.799 249.637C847.445 249.424 860.203 237.318 860.445 223.09C860.85 199.956 860.435 176.811 860.435 153.666Z" fill="#F200AE"/>
<path d="M832.494 53.8449C838.823 53.7443 844.863 51.0292 849.315 46.2826C853.768 41.536 856.28 35.1364 856.31 28.4579C856.341 21.7795 853.888 15.3547 849.478 10.5632C845.069 5.7716 839.055 2.99535 832.727 2.83053C829.512 2.74679 826.313 3.3405 823.319 4.5769C820.324 5.81331 817.593 7.66757 815.286 10.0312C812.979 12.3947 811.141 15.2202 809.882 18.3421C808.622 21.464 807.965 24.8196 807.95 28.2126C807.934 31.6056 808.561 34.9677 809.792 38.1023C811.023 41.2368 812.834 44.0807 815.12 46.4676C817.405 48.8545 820.119 50.7364 823.103 52.0031C826.086 53.2699 829.279 53.896 832.494 53.8449Z" fill="#F200AE"/>
<path d="M551.68 51.4981C561.991 56.1911 571.807 54.2499 578.762 46.1652C582.423 42.6488 584.918 37.985 585.879 32.8603C586.84 27.7356 586.216 22.4208 584.099 17.6983C581.98 12.8731 578.474 8.87479 574.079 6.27098C569.684 3.66717 564.624 2.59017 559.616 3.19287C557.968 3.45952 556.28 3.55551 554.673 3.99281C545.656 6.48859 538.418 16.1731 537.639 26.6789C536.881 36.7794 543.017 47.5518 551.68 51.4981Z" fill="#F200AE"/>
<path d="M590.529 92.1771C590.6 88.9918 590.184 85.8151 589.295 82.7699C584.787 68.2751 571.908 59.9772 557.402 62.2383C544.018 64.3715 534.152 76.7011 534.152 91.7505C534.098 129.977 534.098 168.206 534.152 206.44C534.152 209.085 534.344 211.772 534.455 214.364C532.17 234.405 544.705 249.839 562.76 249.241C578.075 249.892 590.498 236.72 590.508 219.612C590.522 177.119 590.529 134.641 590.529 92.1771Z" fill="#F200AE"/>
<ellipse cx="115.31" cy="141.473" rx="109.496" ry="110.465" fill="white"/>
<path d="M115.313 52.7771C133.456 52.7771 151.192 58.1697 166.277 68.273C181.362 78.3762 193.12 92.7363 200.063 109.537C207.006 126.338 208.822 144.826 205.283 162.662C201.743 180.498 193.007 196.881 180.178 209.74C167.349 222.599 151.004 231.356 133.209 234.904C115.415 238.452 96.9709 236.631 80.209 229.672C63.4472 222.712 49.1206 210.927 39.041 195.807C28.9613 180.686 23.5813 162.909 23.5813 144.724C23.5845 120.339 33.2501 96.9539 50.4525 79.7113C67.6549 62.4686 90.9855 52.7803 115.313 52.7771ZM115.313 38.2324C94.3005 38.2324 73.7596 44.478 56.288 56.1795C38.8165 67.8809 25.1991 84.5126 17.1579 103.971C9.11659 123.43 7.01263 144.842 11.112 165.499C15.2114 186.157 25.3301 205.132 40.1884 220.025C55.0467 234.918 73.9773 245.06 94.5864 249.169C115.195 253.278 136.557 251.169 155.971 243.109C175.384 235.049 191.977 221.4 203.651 203.887C215.325 186.375 221.556 165.786 221.556 144.724C221.511 116.494 210.304 89.4339 190.389 69.4726C170.474 49.5113 143.477 38.2773 115.313 38.2324Z" fill="#EBEBF6"/>
<path fill-rule="evenodd" clip-rule="evenodd" d="M175.532 75.5513C166.838 84.3023 151.348 103.429 145.193 133.73C137.937 169.474 103.075 218.004 91.3459 233.604C111.37 239.027 132.636 237.486 151.673 229.232C170.71 220.979 186.394 206.501 196.164 188.162C205.934 169.822 209.213 148.705 205.466 128.257C201.719 107.809 191.167 89.2377 175.532 75.5755V75.5513Z" fill="#BC0186"/>
<path fill-rule="evenodd" clip-rule="evenodd" d="M190.076 91.687C185.046 108.983 165.662 162.75 116.846 172.277C72.745 180.931 53.4095 197.9 46.5774 205.754C62.1306 223.361 83.8249 234.324 107.197 236.386C130.568 238.448 153.84 231.453 172.223 216.841C190.606 202.228 202.702 181.109 206.023 157.829C209.344 134.549 203.637 110.878 190.076 91.687Z" fill="#F200AE"/>
<path d="M115.336 29.0698C92.5248 29.0698 70.2257 35.85 51.2588 48.553C32.2919 61.2559 17.509 79.3111 8.77949 100.435C0.049976 121.56 -2.23407 144.804 2.2162 167.23C6.66647 189.655 17.6512 210.254 33.7812 226.422C49.9112 242.59 70.4621 253.6 92.8351 258.061C115.208 262.521 138.398 260.232 159.473 251.482C180.548 242.732 198.561 227.915 211.235 208.903C223.908 189.892 230.672 167.541 230.672 144.676C230.672 114.015 218.521 84.6104 196.891 62.9301C175.261 41.2497 145.925 29.0698 115.336 29.0698ZM115.336 246.865C95.1723 246.865 75.4614 240.871 58.6958 229.643C41.9302 218.414 28.863 202.454 21.1467 183.782C13.4303 165.109 11.4114 144.563 15.3451 124.74C19.2789 104.917 28.9887 86.709 43.2466 72.4177C57.5046 58.1263 75.6703 48.3938 95.4467 44.4508C115.223 40.5079 135.722 42.5315 154.351 50.266C172.98 58.0004 188.902 71.0982 200.104 87.903C211.307 104.708 217.286 124.465 217.286 144.676C217.286 171.778 206.545 197.77 187.426 216.934C168.306 236.098 142.375 246.865 115.336 246.865Z" fill="#A8AFC3"/>
</svg>
